<?xml version="1.0" encoding="UTF-8"?>
<svg xmlns="http://www.w3.org/2000/svg" xmlns:xlink="http://www.w3.org/1999/xlink" width="841.89pt" height="595.28pt" viewBox="0 0 841.89 595.28" version="1.1">
<g id="surface1">
<path style=" stroke:none;fill-rule:nonzero;fill:rgb(49.411011%,50.195313%,51.371765%);fill-opacity:1;" d="M 329.488281 151.011719 L 292.902344 151.011719 L 274.613281 182.691406 L 292.902344 214.375 L 274.613281 246.054688 L 292.902344 277.738281 L 274.613281 309.421875 L 292.902344 341.105469 L 329.488281 341.105469 L 347.777344 309.421875 L 329.488281 277.738281 L 347.777344 246.054688 L 329.488281 214.375 L 347.777344 182.691406 L 329.488281 151.011719 "/>
<path style=" stroke:none;fill-rule:nonzero;fill:rgb(49.411011%,50.195313%,51.371765%);fill-opacity:1;" d="M 548.984375 214.375 L 567.277344 182.691406 L 548.984375 151.011719 L 512.402344 151.011719 L 494.109375 182.691406 L 512.402344 214.375 L 494.109375 246.054688 L 512.402344 277.738281 L 494.109375 309.421875 L 512.402344 341.105469 L 548.984375 341.105469 L 567.277344 309.421875 L 548.984375 277.738281 L 567.277344 246.054688 L 548.984375 214.375 "/>
<path style=" stroke:none;fill-rule:nonzero;fill:rgb(97.253418%,59.214783%,11.372375%);fill-opacity:1;" d="M 347.777344 309.421875 L 329.488281 341.105469 L 347.777344 372.785156 L 384.363281 372.785156 L 402.652344 341.105469 L 384.363281 309.421875 L 347.777344 309.421875 "/>
<path style=" stroke:none;fill-rule:nonzero;fill:rgb(97.253418%,59.214783%,11.372375%);fill-opacity:1;" d="M 494.113281 246.054688 L 457.527344 246.054688 L 439.238281 214.375 L 402.652344 214.375 L 384.363281 182.691406 L 402.652344 151.011719 L 439.238281 151.011719 L 457.527344 182.691406 L 494.113281 182.691406 L 512.402344 151.011719 L 494.113281 119.328125 L 457.527344 119.328125 L 439.238281 87.648438 L 402.652344 87.648438 L 384.363281 119.328125 L 347.777344 119.328125 L 329.488281 151.011719 L 347.777344 182.691406 L 329.488281 214.375 L 347.777344 246.054688 L 384.363281 246.054688 L 402.652344 277.738281 L 439.238281 277.738281 L 457.527344 309.421875 L 439.238281 341.105469 L 457.527344 372.785156 L 494.113281 372.785156 L 512.402344 341.105469 L 494.113281 309.421875 L 512.402344 277.738281 L 494.113281 246.054688 "/>
<path style=" stroke:none;fill-rule:nonzero;fill:rgb(49.411011%,50.195313%,51.371765%);fill-opacity:1;" d="M 348.007813 454.546875 C 348.167969 457.945313 349.21875 460.289063 351.160156 461.582031 C 353.101563 462.878906 355.691406 463.523438 358.925781 463.523438 C 360.054688 463.523438 361.175781 463.414063 362.28125 463.199219 C 363.382813 462.984375 364.367188 462.648438 365.230469 462.191406 C 366.09375 461.734375 366.792969 461.125 367.335938 460.371094 C 367.871094 459.617188 368.144531 458.699219 368.144531 457.621094 C 368.144531 456.328125 367.671875 455.277344 366.726563 454.46875 C 365.785156 453.660156 364.53125 452.957031 362.96875 452.363281 C 361.402344 451.773438 359.636719 451.246094 357.671875 450.789063 C 355.703125 450.332031 353.667969 449.804688 351.566406 449.210938 C 349.515625 448.617188 347.480469 447.917969 345.460938 447.109375 C 343.4375 446.300781 341.632813 445.261719 340.042969 443.996094 C 338.453125 442.730469 337.15625 441.164063 336.160156 439.304688 C 335.164063 437.445313 334.664063 435.195313 334.664063 432.554688 C 334.664063 429.425781 335.378906 426.746094 336.808594 424.507813 C 338.234375 422.269531 340.082031 420.453125 342.347656 419.050781 C 344.609375 417.648438 347.144531 416.621094 349.949219 415.976563 C 352.75 415.328125 355.5 415.003906 358.195313 415.003906 C 361.054688 415.003906 363.871094 415.371094 366.648438 416.097656 C 369.421875 416.824219 371.890625 417.945313 374.046875 419.453125 C 376.199219 420.964844 377.953125 422.890625 379.300781 425.234375 C 380.648438 427.582031 381.324219 430.371094 381.324219 433.605469 L 366.28125 433.605469 C 366.335938 432.3125 366.09375 431.21875 365.554688 430.328125 C 365.015625 429.441406 364.300781 428.726563 363.410156 428.1875 C 362.523438 427.648438 361.511719 427.257813 360.378906 427.015625 C 359.246094 426.769531 358.117188 426.648438 356.984375 426.648438 C 356.175781 426.648438 355.339844 426.730469 354.476563 426.894531 C 353.613281 427.054688 352.832031 427.324219 352.132813 427.703125 C 351.429688 428.078125 350.851563 428.578125 350.394531 429.199219 C 349.933594 429.816406 349.707031 430.613281 349.707031 431.582031 C 349.707031 432.714844 350.175781 433.632813 351.121094 434.332031 C 352.0625 435.035156 353.332031 435.652344 354.921875 436.191406 C 356.511719 436.730469 358.304688 437.21875 360.300781 437.648438 C 362.292969 438.078125 364.34375 438.589844 366.445313 439.183594 C 368.546875 439.777344 370.59375 440.492188 372.589844 441.328125 C 374.585938 442.164063 376.363281 443.214844 377.925781 444.480469 C 379.488281 445.746094 380.757813 447.3125 381.726563 449.171875 C 382.699219 451.03125 383.183594 453.253906 383.183594 455.84375 C 383.183594 459.507813 382.46875 462.582031 381.039063 465.058594 C 379.609375 467.539063 377.726563 469.523438 375.378906 471.003906 C 373.035156 472.488281 370.351563 473.550781 367.335938 474.199219 C 364.3125 474.84375 361.214844 475.167969 358.035156 475.167969 C 354.691406 475.167969 351.523438 474.789063 348.53125 474.035156 C 345.539063 473.28125 342.886719 472.070313 340.566406 470.398438 C 338.25 468.726563 336.402344 466.597656 335.027344 464.007813 C 333.652344 461.421875 332.96875 458.269531 332.96875 454.546875 L 348.007813 454.546875 "/>
<path style=" stroke:none;fill-rule:nonzero;fill:rgb(49.411011%,50.195313%,51.371765%);fill-opacity:1;" d="M 385.851563 444.925781 C 385.957031 442.175781 386.605469 439.886719 387.792969 438.050781 C 388.976563 436.21875 390.515625 434.765625 392.402344 433.683594 C 394.289063 432.609375 396.375 431.851563 398.667969 431.421875 C 400.960938 430.992188 403.316406 430.773438 405.742188 430.773438 C 408.222656 430.773438 410.636719 430.949219 412.980469 431.300781 C 415.324219 431.652344 417.414063 432.339844 419.246094 433.363281 C 421.078125 434.386719 422.550781 435.816406 423.65625 437.648438 C 424.757813 439.480469 425.3125 441.878906 425.3125 444.84375 L 425.3125 463.199219 C 425.3125 464.980469 425.378906 466.800781 425.515625 468.660156 C 425.648438 470.519531 426.121094 472.285156 426.929688 473.957031 L 413.101563 473.957031 C 412.832031 473.308594 412.65625 472.660156 412.578125 472.015625 C 412.496094 471.367188 412.402344 470.695313 412.292969 469.992188 C 410.515625 471.882813 408.398438 473.214844 405.945313 473.996094 C 403.492188 474.777344 401 475.167969 398.464844 475.167969 C 396.472656 475.167969 394.597656 474.910156 392.847656 474.398438 C 391.09375 473.886719 389.570313 473.105469 388.277344 472.054688 C 386.984375 471.003906 385.972656 469.683594 385.246094 468.09375 C 384.515625 466.503906 384.152344 464.628906 384.152344 462.472656 C 384.152344 460.207031 384.53125 458.324219 385.285156 456.8125 C 386.039063 455.304688 387.066406 454.0625 388.359375 453.09375 C 389.652344 452.121094 391.132813 451.367188 392.804688 450.828125 C 394.476563 450.289063 396.214844 449.859375 398.023438 449.535156 C 399.828125 449.210938 401.632813 448.941406 403.4375 448.726563 C 405.246094 448.511719 406.957031 448.242188 408.574219 447.917969 C 409.757813 447.648438 410.664063 447.257813 411.28125 446.746094 C 411.902344 446.234375 412.214844 445.328125 412.214844 444.035156 C 412.214844 443.226563 411.996094 442.554688 411.566406 442.015625 C 411.132813 441.476563 410.597656 441.03125 409.949219 440.679688 C 409.300781 440.332031 408.585938 440.074219 407.804688 439.910156 C 407.023438 439.75 406.28125 439.667969 405.582031 439.667969 C 401.648438 439.667969 399.355469 441.421875 398.707031 444.925781 Z M 397.898438 461.90625 C 397.898438 463.632813 398.464844 464.859375 399.597656 465.585938 C 400.730469 466.3125 402.078125 466.679688 403.640625 466.679688 C 406.929688 466.679688 409.191406 465.707031 410.433594 463.765625 C 411.671875 461.824219 412.214844 458.671875 412.050781 454.304688 C 411.082031 454.898438 409.800781 455.316406 408.210938 455.558594 C 406.621094 455.800781 405.070313 456.140625 403.5625 456.570313 C 401.996094 456.949219 400.660156 457.511719 399.558594 458.269531 C 398.453125 459.023438 397.898438 460.238281 397.898438 461.90625 "/>
<path style=" stroke:none;fill-rule:nonzero;fill:rgb(49.411011%,50.195313%,51.371765%);fill-opacity:1;" d="M 429.515625 416.21875 L 443.261719 416.21875 L 443.261719 437.730469 L 443.425781 437.730469 C 443.964844 436.652344 444.691406 435.679688 445.609375 434.816406 C 446.523438 433.957031 447.5625 433.226563 448.722656 432.632813 C 449.878906 432.039063 451.105469 431.582031 452.402344 431.257813 C 453.695313 430.9375 454.960938 430.773438 456.203125 430.773438 C 459.703125 430.773438 462.46875 431.339844 464.488281 432.472656 C 466.511719 433.605469 468.019531 434.992188 469.019531 436.636719 C 470.015625 438.28125 470.648438 440.046875 470.917969 441.933594 C 471.1875 443.820313 471.324219 445.519531 471.324219 447.027344 L 471.324219 473.957031 L 457.574219 473.957031 L 457.574219 453.660156 C 457.574219 452.203125 457.574219 450.800781 457.574219 449.453125 C 457.574219 448.050781 457.375 446.8125 456.96875 445.734375 C 456.566406 444.65625 455.890625 443.78125 454.949219 443.105469 C 454.003906 442.433594 452.589844 442.09375 450.703125 442.09375 C 449.410156 442.09375 448.289063 442.351563 447.347656 442.863281 C 446.402344 443.375 445.636719 444.050781 445.042969 444.886719 C 444.449219 445.722656 444.003906 446.679688 443.707031 447.753906 C 443.410156 448.835938 443.261719 449.9375 443.261719 451.070313 L 443.261719 473.957031 L 429.515625 473.957031 L 429.515625 416.21875 "/>
<path style=" stroke:none;fill-rule:nonzero;fill:rgb(49.411011%,50.195313%,51.371765%);fill-opacity:1;" d="M 489.839844 426.730469 L 476.09375 426.730469 L 476.09375 416.21875 L 489.839844 416.21875 Z M 476.09375 431.988281 L 489.839844 431.988281 L 489.839844 473.957031 L 476.09375 473.957031 L 476.09375 431.988281 "/>
<path style=" stroke:none;fill-rule:nonzero;fill:rgb(49.411011%,50.195313%,51.371765%);fill-opacity:1;" d="M 495.175781 416.21875 L 508.921875 416.21875 L 508.921875 473.957031 L 495.175781 473.957031 L 495.175781 416.21875 "/>
<path style=" stroke:none;fill-rule:nonzero;fill:rgb(49.411011%,50.195313%,51.371765%);fill-opacity:1;" d="M 311.296875 488.078125 L 325.046875 488.078125 L 325.046875 490.96875 L 314.640625 490.96875 L 314.640625 495.972656 L 324.273438 495.972656 L 324.273438 498.699219 L 314.640625 498.699219 L 314.640625 504.289063 L 325.234375 504.289063 L 325.234375 507.179688 L 311.296875 507.179688 L 311.296875 488.078125 "/>
<path style=" stroke:none;fill-rule:nonzero;fill:rgb(49.411011%,50.195313%,51.371765%);fill-opacity:1;" d="M 327.804688 488.078125 L 330.851563 488.078125 L 330.851563 507.179688 L 327.804688 507.179688 L 327.804688 488.078125 "/>
<path style=" stroke:none;fill-rule:nonzero;fill:rgb(49.411011%,50.195313%,51.371765%);fill-opacity:1;" d="M 335.480469 501.054688 C 335.480469 501.589844 335.558594 502.105469 335.707031 502.605469 C 335.859375 503.105469 336.085938 503.542969 336.390625 503.917969 C 336.691406 504.289063 337.074219 504.589844 337.539063 504.8125 C 338.003906 505.035156 338.558594 505.148438 339.199219 505.148438 C 340.089844 505.148438 340.808594 504.957031 341.355469 504.574219 C 341.898438 504.1875 342.304688 503.613281 342.570313 502.847656 L 345.460938 502.847656 C 345.300781 503.597656 345.023438 504.265625 344.632813 504.855469 C 344.238281 505.441406 343.765625 505.9375 343.214844 506.339844 C 342.660156 506.738281 342.039063 507.042969 341.355469 507.246094 C 340.664063 507.453125 339.949219 507.554688 339.199219 507.554688 C 338.109375 507.554688 337.148438 507.375 336.308594 507.019531 C 335.472656 506.664063 334.761719 506.164063 334.183594 505.523438 C 333.605469 504.878906 333.164063 504.113281 332.871094 503.222656 C 332.578125 502.328125 332.429688 501.347656 332.429688 500.277344 C 332.429688 499.296875 332.585938 498.367188 332.898438 497.484375 C 333.210938 496.601563 333.65625 495.824219 334.234375 495.15625 C 334.816406 494.488281 335.515625 493.957031 336.335938 493.5625 C 337.15625 493.171875 338.085938 492.976563 339.117188 492.976563 C 340.207031 492.976563 341.183594 493.203125 342.050781 493.65625 C 342.914063 494.113281 343.632813 494.714844 344.203125 495.464844 C 344.773438 496.210938 345.1875 497.074219 345.445313 498.042969 C 345.703125 499.015625 345.773438 500.019531 345.648438 501.054688 Z M 342.597656 499.046875 C 342.5625 498.566406 342.460938 498.101563 342.289063 497.65625 C 342.117188 497.210938 341.886719 496.824219 341.59375 496.492188 C 341.300781 496.164063 340.941406 495.894531 340.523438 495.691406 C 340.105469 495.484375 339.636719 495.382813 339.117188 495.382813 C 338.585938 495.382813 338.097656 495.476563 337.660156 495.664063 C 337.222656 495.851563 336.851563 496.109375 336.535156 496.441406 C 336.226563 496.769531 335.976563 497.15625 335.789063 497.601563 C 335.601563 498.050781 335.496094 498.53125 335.480469 499.046875 L 342.597656 499.046875 "/>
<path style=" stroke:none;fill-rule:nonzero;fill:rgb(49.411011%,50.195313%,51.371765%);fill-opacity:1;" d="M 356.777344 497.976563 C 356.652344 497.121094 356.308594 496.476563 355.746094 496.039063 C 355.183594 495.601563 354.476563 495.382813 353.617188 495.382813 C 353.226563 495.382813 352.808594 495.449219 352.359375 495.582031 C 351.914063 495.71875 351.507813 495.96875 351.132813 496.332031 C 350.757813 496.699219 350.445313 497.207031 350.195313 497.859375 C 349.945313 498.507813 349.820313 499.359375 349.820313 500.414063 C 349.820313 500.984375 349.886719 501.554688 350.023438 502.125 C 350.152344 502.695313 350.367188 503.203125 350.664063 503.648438 C 350.957031 504.097656 351.335938 504.457031 351.800781 504.734375 C 352.265625 505.011719 352.824219 505.148438 353.484375 505.148438 C 354.378906 505.148438 355.113281 504.871094 355.691406 504.320313 C 356.273438 503.765625 356.632813 502.988281 356.777344 501.992188 L 359.824219 501.992188 C 359.539063 503.792969 358.859375 505.167969 357.777344 506.125 C 356.699219 507.078125 355.269531 507.554688 353.484375 507.554688 C 352.398438 507.554688 351.441406 507.371094 350.609375 507.007813 C 349.78125 506.640625 349.078125 506.140625 348.511719 505.507813 C 347.9375 504.875 347.507813 504.121094 347.210938 503.246094 C 346.917969 502.375 346.769531 501.429688 346.769531 500.414063 C 346.769531 499.378906 346.914063 498.40625 347.199219 497.496094 C 347.484375 496.585938 347.910156 495.796875 348.480469 495.128906 C 349.054688 494.460938 349.761719 493.933594 350.609375 493.550781 C 351.457031 493.164063 352.449219 492.976563 353.59375 492.976563 C 354.394531 492.976563 355.15625 493.078125 355.878906 493.28125 C 356.601563 493.488281 357.242188 493.796875 357.808594 494.207031 C 358.367188 494.617188 358.828125 495.132813 359.183594 495.757813 C 359.539063 496.382813 359.753906 497.121094 359.824219 497.976563 L 356.777344 497.976563 "/>
<path style=" stroke:none;fill-rule:nonzero;fill:rgb(49.411011%,50.195313%,51.371765%);fill-opacity:1;" d="M 359.855469 493.347656 L 362.152344 493.347656 L 362.152344 489.203125 L 365.203125 489.203125 L 365.203125 493.347656 L 367.960938 493.347656 L 367.960938 495.621094 L 365.203125 495.621094 L 365.203125 503.007813 C 365.203125 503.328125 365.21875 503.605469 365.242188 503.835938 C 365.273438 504.070313 365.332031 504.265625 365.433594 504.425781 C 365.527344 504.585938 365.675781 504.707031 365.871094 504.785156 C 366.066406 504.867188 366.335938 504.90625 366.675781 504.90625 C 366.890625 504.90625 367.105469 504.902344 367.316406 504.894531 C 367.53125 504.886719 367.746094 504.855469 367.960938 504.800781 L 367.960938 507.15625 C 367.621094 507.191406 367.289063 507.226563 366.96875 507.261719 C 366.648438 507.296875 366.316406 507.316406 365.980469 507.316406 C 365.179688 507.316406 364.53125 507.238281 364.039063 507.085938 C 363.550781 506.9375 363.164063 506.714844 362.890625 506.417969 C 362.613281 506.125 362.425781 505.753906 362.328125 505.308594 C 362.230469 504.863281 362.171875 504.355469 362.152344 503.785156 L 362.152344 495.621094 L 359.855469 495.621094 L 359.855469 493.347656 "/>
<path style=" stroke:none;fill-rule:nonzero;fill:rgb(49.411011%,50.195313%,51.371765%);fill-opacity:1;" d="M 369.082031 493.347656 L 371.945313 493.347656 L 371.945313 496.023438 L 372 496.023438 C 372.089844 495.648438 372.261719 495.285156 372.519531 494.929688 C 372.777344 494.570313 373.09375 494.246094 373.457031 493.953125 C 373.820313 493.65625 374.230469 493.421875 374.675781 493.242188 C 375.121094 493.0625 375.574219 492.976563 376.039063 492.976563 C 376.394531 492.976563 376.640625 492.984375 376.773438 493 C 376.90625 493.019531 377.046875 493.039063 377.191406 493.054688 L 377.191406 495.996094 C 376.976563 495.960938 376.757813 495.929688 376.53125 495.90625 C 376.3125 495.875 376.09375 495.863281 375.878906 495.863281 C 375.359375 495.863281 374.875 495.96875 374.421875 496.171875 C 373.964844 496.375 373.566406 496.679688 373.230469 497.082031 C 372.890625 497.484375 372.621094 497.976563 372.425781 498.566406 C 372.230469 499.15625 372.132813 499.832031 372.132813 500.601563 L 372.132813 507.179688 L 369.082031 507.179688 L 369.082031 493.347656 "/>
<path style=" stroke:none;fill-rule:nonzero;fill:rgb(49.411011%,50.195313%,51.371765%);fill-opacity:1;" d="M 383.824219 507.554688 C 382.71875 507.554688 381.730469 507.371094 380.867188 507.007813 C 380.003906 506.640625 379.273438 506.136719 378.675781 505.496094 C 378.074219 504.855469 377.621094 504.085938 377.308594 503.195313 C 376.996094 502.304688 376.839844 501.320313 376.839844 500.25 C 376.839844 499.199219 376.996094 498.226563 377.308594 497.335938 C 377.621094 496.445313 378.074219 495.675781 378.675781 495.035156 C 379.273438 494.394531 380.003906 493.890625 380.867188 493.523438 C 381.730469 493.15625 382.71875 492.976563 383.824219 492.976563 C 384.929688 492.976563 385.914063 493.15625 386.78125 493.523438 C 387.644531 493.890625 388.375 494.394531 388.972656 495.035156 C 389.570313 495.675781 390.023438 496.445313 390.339844 497.335938 C 390.648438 498.226563 390.808594 499.199219 390.808594 500.25 C 390.808594 501.320313 390.648438 502.304688 390.339844 503.195313 C 390.023438 504.085938 389.570313 504.855469 388.972656 505.496094 C 388.375 506.136719 387.644531 506.640625 386.78125 507.007813 C 385.914063 507.371094 384.929688 507.554688 383.824219 507.554688 Z M 383.824219 505.148438 C 384.503906 505.148438 385.089844 505.003906 385.589844 504.71875 C 386.089844 504.433594 386.5 504.058594 386.820313 503.597656 C 387.140625 503.132813 387.378906 502.609375 387.527344 502.03125 C 387.679688 501.453125 387.757813 500.859375 387.757813 500.25 C 387.757813 499.664063 387.679688 499.074219 387.527344 498.484375 C 387.378906 497.898438 387.140625 497.375 386.820313 496.921875 C 386.5 496.464844 386.089844 496.097656 385.589844 495.8125 C 385.089844 495.527344 384.503906 495.382813 383.824219 495.382813 C 383.144531 495.382813 382.558594 495.527344 382.058594 495.8125 C 381.558594 496.097656 381.148438 496.464844 380.828125 496.921875 C 380.507813 497.375 380.269531 497.898438 380.117188 498.484375 C 379.96875 499.074219 379.890625 499.664063 379.890625 500.25 C 379.890625 500.859375 379.96875 501.453125 380.117188 502.03125 C 380.269531 502.609375 380.507813 503.132813 380.828125 503.597656 C 381.148438 504.058594 381.558594 504.433594 382.058594 504.71875 C 382.558594 505.003906 383.144531 505.148438 383.824219 505.148438 "/>
<path style=" stroke:none;fill-rule:nonzero;fill:rgb(49.411011%,50.195313%,51.371765%);fill-opacity:1;" d="M 391.742188 493.347656 L 394.632813 493.347656 L 394.632813 495.382813 L 394.6875 495.4375 C 395.148438 494.667969 395.757813 494.066406 396.503906 493.628906 C 397.253906 493.195313 398.082031 492.976563 398.992188 492.976563 C 400.507813 492.976563 401.703125 493.367188 402.578125 494.152344 C 403.449219 494.9375 403.890625 496.113281 403.890625 497.683594 L 403.890625 507.179688 L 400.839844 507.179688 L 400.839844 498.484375 C 400.804688 497.398438 400.570313 496.609375 400.144531 496.117188 C 399.714844 495.628906 399.046875 495.382813 398.136719 495.382813 C 397.617188 495.382813 397.15625 495.476563 396.746094 495.664063 C 396.335938 495.851563 395.984375 496.109375 395.703125 496.441406 C 395.414063 496.769531 395.191406 497.15625 395.03125 497.601563 C 394.871094 498.050781 394.792969 498.523438 394.792969 499.019531 L 394.792969 507.179688 L 391.742188 507.179688 L 391.742188 493.347656 "/>
<path style=" stroke:none;fill-rule:nonzero;fill:rgb(49.411011%,50.195313%,51.371765%);fill-opacity:1;" d="M 406.109375 488.078125 L 409.15625 488.078125 L 409.15625 490.96875 L 406.109375 490.96875 Z M 406.109375 493.347656 L 409.15625 493.347656 L 409.15625 507.179688 L 406.109375 507.179688 L 406.109375 493.347656 "/>
<path style=" stroke:none;fill-rule:nonzero;fill:rgb(49.411011%,50.195313%,51.371765%);fill-opacity:1;" d="M 420.742188 497.976563 C 420.617188 497.121094 420.273438 496.476563 419.714844 496.039063 C 419.152344 495.601563 418.441406 495.382813 417.585938 495.382813 C 417.191406 495.382813 416.773438 495.449219 416.328125 495.582031 C 415.882813 495.71875 415.472656 495.96875 415.097656 496.332031 C 414.722656 496.699219 414.410156 497.207031 414.160156 497.859375 C 413.910156 498.507813 413.785156 499.359375 413.785156 500.414063 C 413.785156 500.984375 413.855469 501.554688 413.988281 502.125 C 414.121094 502.695313 414.335938 503.203125 414.628906 503.648438 C 414.925781 504.097656 415.304688 504.457031 415.765625 504.734375 C 416.230469 505.011719 416.792969 505.148438 417.453125 505.148438 C 418.34375 505.148438 419.078125 504.871094 419.660156 504.320313 C 420.238281 503.765625 420.601563 502.988281 420.742188 501.992188 L 423.792969 501.992188 C 423.507813 503.792969 422.824219 505.167969 421.746094 506.125 C 420.667969 507.078125 419.234375 507.554688 417.453125 507.554688 C 416.363281 507.554688 415.40625 507.371094 414.574219 507.007813 C 413.746094 506.640625 413.046875 506.140625 412.476563 505.507813 C 411.90625 504.875 411.472656 504.121094 411.179688 503.246094 C 410.886719 502.375 410.738281 501.429688 410.738281 500.414063 C 410.738281 499.378906 410.878906 498.40625 411.164063 497.496094 C 411.449219 496.585938 411.878906 495.796875 412.449219 495.128906 C 413.019531 494.460938 413.730469 493.933594 414.574219 493.550781 C 415.425781 493.164063 416.417969 492.976563 417.558594 492.976563 C 418.359375 492.976563 419.125 493.078125 419.847656 493.28125 C 420.570313 493.488281 421.210938 493.796875 421.773438 494.207031 C 422.335938 494.617188 422.792969 495.132813 423.148438 495.757813 C 423.507813 496.382813 423.722656 497.121094 423.792969 497.976563 L 420.742188 497.976563 "/>
<path style=" stroke:none;fill-rule:nonzero;fill:rgb(49.411011%,50.195313%,51.371765%);fill-opacity:1;" d="M 436.339844 500.8125 C 436.339844 501.542969 436.464844 502.167969 436.714844 502.6875 C 436.964844 503.203125 437.3125 503.625 437.757813 503.957031 C 438.203125 504.289063 438.71875 504.527344 439.296875 504.679688 C 439.875 504.832031 440.503906 504.90625 441.183594 504.90625 C 441.914063 504.90625 442.539063 504.824219 443.054688 504.652344 C 443.570313 504.484375 443.992188 504.265625 444.3125 503.996094 C 444.632813 503.730469 444.863281 503.421875 445.007813 503.074219 C 445.148438 502.726563 445.222656 502.375 445.222656 502.019531 C 445.222656 501.285156 445.058594 500.746094 444.726563 500.398438 C 444.398438 500.050781 444.035156 499.804688 443.644531 499.664063 C 442.964844 499.414063 442.175781 499.175781 441.277344 498.953125 C 440.375 498.730469 439.265625 498.441406 437.945313 498.082031 C 437.125 497.871094 436.441406 497.589844 435.898438 497.242188 C 435.355469 496.894531 434.921875 496.507813 434.601563 496.078125 C 434.28125 495.648438 434.054688 495.195313 433.917969 494.714844 C 433.785156 494.230469 433.71875 493.742188 433.71875 493.242188 C 433.71875 492.28125 433.917969 491.445313 434.320313 490.742188 C 434.722656 490.035156 435.253906 489.453125 435.910156 488.988281 C 436.570313 488.523438 437.320313 488.183594 438.160156 487.957031 C 438.996094 487.734375 439.847656 487.625 440.699219 487.625 C 441.699219 487.625 442.640625 487.753906 443.523438 488.011719 C 444.40625 488.269531 445.183594 488.660156 445.851563 489.175781 C 446.519531 489.695313 447.050781 490.332031 447.441406 491.089844 C 447.835938 491.847656 448.03125 492.726563 448.03125 493.722656 L 444.6875 493.722656 C 444.597656 492.492188 444.179688 491.621094 443.429688 491.117188 C 442.683594 490.605469 441.726563 490.351563 440.566406 490.351563 C 440.175781 490.351563 439.773438 490.394531 439.363281 490.472656 C 438.953125 490.554688 438.578125 490.6875 438.238281 490.875 C 437.898438 491.0625 437.621094 491.316406 437.398438 491.636719 C 437.175781 491.957031 437.0625 492.359375 437.0625 492.839844 C 437.0625 493.519531 437.273438 494.050781 437.691406 494.433594 C 438.109375 494.816406 438.65625 495.105469 439.335938 495.300781 C 439.40625 495.320313 439.691406 495.394531 440.179688 495.53125 C 440.671875 495.664063 441.21875 495.8125 441.824219 495.972656 C 442.433594 496.132813 443.023438 496.289063 443.605469 496.441406 C 444.183594 496.589844 444.597656 496.703125 444.847656 496.773438 C 445.472656 496.96875 446.015625 497.238281 446.480469 497.578125 C 446.941406 497.914063 447.332031 498.304688 447.644531 498.742188 C 447.953125 499.175781 448.1875 499.644531 448.339844 500.144531 C 448.488281 500.644531 448.566406 501.144531 448.566406 501.644531 C 448.566406 502.714844 448.347656 503.625 447.910156 504.386719 C 447.476563 505.144531 446.898438 505.761719 446.1875 506.246094 C 445.472656 506.726563 444.660156 507.078125 443.75 507.300781 C 442.84375 507.523438 441.914063 507.636719 440.96875 507.636719 C 439.882813 507.636719 438.855469 507.5 437.894531 507.234375 C 436.929688 506.96875 436.089844 506.558594 435.378906 506.003906 C 434.664063 505.453125 434.09375 504.742188 433.664063 503.875 C 433.234375 503.011719 433.015625 501.992188 432.996094 500.8125 L 436.339844 500.8125 "/>
<path style=" stroke:none;fill-rule:nonzero;fill:rgb(49.411011%,50.195313%,51.371765%);fill-opacity:1;" d="M 452.363281 501.054688 C 452.363281 501.589844 452.441406 502.105469 452.59375 502.605469 C 452.742188 503.105469 452.972656 503.542969 453.273438 503.917969 C 453.578125 504.289063 453.960938 504.589844 454.425781 504.8125 C 454.890625 505.035156 455.441406 505.148438 456.085938 505.148438 C 456.976563 505.148438 457.691406 504.957031 458.238281 504.574219 C 458.78125 504.1875 459.1875 503.613281 459.453125 502.847656 L 462.34375 502.847656 C 462.183594 503.597656 461.90625 504.265625 461.515625 504.855469 C 461.121094 505.441406 460.648438 505.9375 460.097656 506.339844 C 459.546875 506.738281 458.925781 507.042969 458.238281 507.246094 C 457.550781 507.453125 456.835938 507.554688 456.085938 507.554688 C 454.996094 507.554688 454.03125 507.375 453.195313 507.019531 C 452.355469 506.664063 451.648438 506.164063 451.066406 505.523438 C 450.488281 504.878906 450.050781 504.113281 449.757813 503.222656 C 449.464844 502.328125 449.316406 501.347656 449.316406 500.277344 C 449.316406 499.296875 449.472656 498.367188 449.785156 497.484375 C 450.097656 496.601563 450.542969 495.824219 451.121094 495.15625 C 451.699219 494.488281 452.402344 493.957031 453.222656 493.5625 C 454.042969 493.171875 454.96875 492.976563 456.003906 492.976563 C 457.09375 492.976563 458.066406 493.203125 458.933594 493.65625 C 459.800781 494.113281 460.515625 494.714844 461.089844 495.464844 C 461.65625 496.210938 462.070313 497.074219 462.332031 498.042969 C 462.589844 499.015625 462.65625 500.019531 462.53125 501.054688 Z M 459.480469 499.046875 C 459.445313 498.566406 459.34375 498.101563 459.175781 497.65625 C 459.003906 497.210938 458.773438 496.824219 458.480469 496.492188 C 458.183594 496.164063 457.828125 495.894531 457.40625 495.691406 C 456.988281 495.484375 456.523438 495.382813 456.003906 495.382813 C 455.46875 495.382813 454.980469 495.476563 454.546875 495.664063 C 454.109375 495.851563 453.734375 496.109375 453.421875 496.441406 C 453.109375 496.769531 452.859375 497.15625 452.675781 497.601563 C 452.484375 498.050781 452.382813 498.53125 452.363281 499.046875 L 459.480469 499.046875 "/>
<path style=" stroke:none;fill-rule:nonzero;fill:rgb(49.411011%,50.195313%,51.371765%);fill-opacity:1;" d="M 463.789063 493.347656 L 466.652344 493.347656 L 466.652344 496.023438 L 466.703125 496.023438 C 466.796875 495.648438 466.96875 495.285156 467.226563 494.929688 C 467.484375 494.570313 467.796875 494.246094 468.164063 493.953125 C 468.527344 493.65625 468.933594 493.421875 469.382813 493.242188 C 469.824219 493.0625 470.28125 492.976563 470.746094 492.976563 C 471.101563 492.976563 471.347656 492.984375 471.480469 493 C 471.613281 493.019531 471.753906 493.039063 471.894531 493.054688 L 471.894531 495.996094 C 471.683594 495.960938 471.464844 495.929688 471.238281 495.90625 C 471.019531 495.875 470.800781 495.863281 470.585938 495.863281 C 470.066406 495.863281 469.582031 495.96875 469.128906 496.171875 C 468.671875 496.375 468.273438 496.679688 467.9375 497.082031 C 467.597656 497.484375 467.328125 497.976563 467.132813 498.566406 C 466.9375 499.15625 466.839844 499.832031 466.839844 500.601563 L 466.839844 507.179688 L 463.789063 507.179688 L 463.789063 493.347656 "/>
<path style=" stroke:none;fill-rule:nonzero;fill:rgb(49.411011%,50.195313%,51.371765%);fill-opacity:1;" d="M 470.773438 493.347656 L 474.089844 493.347656 L 477.59375 503.972656 L 477.648438 503.972656 L 481.019531 493.347656 L 484.175781 493.347656 L 479.226563 507.179688 L 475.800781 507.179688 L 470.773438 493.347656 "/>
<path style=" stroke:none;fill-rule:nonzero;fill:rgb(49.411011%,50.195313%,51.371765%);fill-opacity:1;" d="M 485.566406 488.078125 L 488.617188 488.078125 L 488.617188 490.96875 L 485.566406 490.96875 Z M 485.566406 493.347656 L 488.617188 493.347656 L 488.617188 507.179688 L 485.566406 507.179688 L 485.566406 493.347656 "/>
<path style=" stroke:none;fill-rule:nonzero;fill:rgb(49.411011%,50.195313%,51.371765%);fill-opacity:1;" d="M 500.199219 497.976563 C 500.074219 497.121094 499.730469 496.476563 499.171875 496.039063 C 498.609375 495.601563 497.898438 495.382813 497.042969 495.382813 C 496.648438 495.382813 496.230469 495.449219 495.785156 495.582031 C 495.339844 495.71875 494.929688 495.96875 494.554688 496.332031 C 494.183594 496.699219 493.867188 497.207031 493.617188 497.859375 C 493.367188 498.507813 493.242188 499.359375 493.242188 500.414063 C 493.242188 500.984375 493.3125 501.554688 493.445313 502.125 C 493.578125 502.695313 493.792969 503.203125 494.089844 503.648438 C 494.382813 504.097656 494.761719 504.457031 495.226563 504.734375 C 495.6875 505.011719 496.25 505.148438 496.910156 505.148438 C 497.800781 505.148438 498.535156 504.871094 499.117188 504.320313 C 499.695313 503.765625 500.058594 502.988281 500.199219 501.992188 L 503.25 501.992188 C 502.964844 503.792969 502.28125 505.167969 501.203125 506.125 C 500.125 507.078125 498.691406 507.554688 496.910156 507.554688 C 495.820313 507.554688 494.863281 507.371094 494.03125 507.007813 C 493.203125 506.640625 492.503906 506.140625 491.933594 505.507813 C 491.363281 504.875 490.929688 504.121094 490.636719 503.246094 C 490.34375 502.375 490.195313 501.429688 490.195313 500.414063 C 490.195313 499.378906 490.339844 498.40625 490.621094 497.496094 C 490.90625 496.585938 491.335938 495.796875 491.90625 495.128906 C 492.476563 494.460938 493.1875 493.933594 494.03125 493.550781 C 494.882813 493.164063 495.875 492.976563 497.019531 492.976563 C 497.820313 492.976563 498.582031 493.078125 499.304688 493.28125 C 500.027344 493.488281 500.667969 493.796875 501.230469 494.207031 C 501.792969 494.617188 502.253906 495.132813 502.605469 495.757813 C 502.964844 496.382813 503.179688 497.121094 503.25 497.976563 L 500.199219 497.976563 "/>
<path style=" stroke:none;fill-rule:nonzero;fill:rgb(49.411011%,50.195313%,51.371765%);fill-opacity:1;" d="M 507.050781 501.054688 C 507.050781 501.589844 507.125 502.105469 507.277344 502.605469 C 507.429688 503.105469 507.65625 503.542969 507.960938 503.917969 C 508.261719 504.289063 508.644531 504.589844 509.109375 504.8125 C 509.570313 505.035156 510.125 505.148438 510.769531 505.148438 C 511.660156 505.148438 512.378906 504.957031 512.921875 504.574219 C 513.464844 504.1875 513.871094 503.613281 514.140625 502.847656 L 517.027344 502.847656 C 516.867188 503.597656 516.59375 504.265625 516.199219 504.855469 C 515.808594 505.441406 515.335938 505.9375 514.78125 506.339844 C 514.230469 506.738281 513.605469 507.042969 512.921875 507.246094 C 512.234375 507.453125 511.519531 507.554688 510.769531 507.554688 C 509.679688 507.554688 508.71875 507.375 507.878906 507.019531 C 507.039063 506.664063 506.332031 506.164063 505.753906 505.523438 C 505.171875 504.878906 504.734375 504.113281 504.441406 503.222656 C 504.148438 502.328125 504 501.347656 504 500.277344 C 504 499.296875 504.15625 498.367188 504.46875 497.484375 C 504.777344 496.601563 505.226563 495.824219 505.804688 495.15625 C 506.386719 494.488281 507.085938 493.957031 507.90625 493.5625 C 508.726563 493.171875 509.652344 492.976563 510.6875 492.976563 C 511.773438 492.976563 512.753906 493.203125 513.617188 493.65625 C 514.480469 494.113281 515.199219 494.714844 515.773438 495.464844 C 516.34375 496.210938 516.757813 497.074219 517.015625 498.042969 C 517.273438 499.015625 517.339844 500.019531 517.214844 501.054688 Z M 514.164063 499.046875 C 514.128906 498.566406 514.027344 498.101563 513.855469 497.65625 C 513.6875 497.210938 513.457031 496.824219 513.160156 496.492188 C 512.867188 496.164063 512.511719 495.894531 512.09375 495.691406 C 511.675781 495.484375 511.203125 495.382813 510.6875 495.382813 C 510.152344 495.382813 509.664063 495.476563 509.230469 495.664063 C 508.792969 495.851563 508.417969 496.109375 508.105469 496.441406 C 507.792969 496.769531 507.546875 497.15625 507.355469 497.601563 C 507.171875 498.050781 507.066406 498.53125 507.050781 499.046875 L 514.164063 499.046875 "/>
<path style=" stroke:none;fill-rule:nonzero;fill:rgb(49.411011%,50.195313%,51.371765%);fill-opacity:1;" d="M 521.3125 502.738281 C 521.398438 503.632813 521.738281 504.257813 522.324219 504.613281 C 522.914063 504.96875 523.617188 505.148438 524.441406 505.148438 C 524.726563 505.148438 525.050781 505.125 525.414063 505.082031 C 525.78125 505.035156 526.125 504.953125 526.445313 504.828125 C 526.769531 504.703125 527.03125 504.519531 527.234375 504.277344 C 527.441406 504.039063 527.535156 503.722656 527.519531 503.328125 C 527.496094 502.9375 527.355469 502.617188 527.089844 502.367188 C 526.820313 502.117188 526.476563 501.914063 526.058594 501.761719 C 525.640625 501.613281 525.160156 501.484375 524.628906 501.375 C 524.09375 501.269531 523.550781 501.152344 522.996094 501.027344 C 522.425781 500.902344 521.875 500.75 521.351563 500.574219 C 520.824219 500.394531 520.351563 500.152344 519.933594 499.851563 C 519.515625 499.546875 519.179688 499.160156 518.929688 498.6875 C 518.679688 498.214844 518.554688 497.628906 518.554688 496.933594 C 518.554688 496.183594 518.734375 495.558594 519.105469 495.046875 C 519.46875 494.539063 519.933594 494.128906 520.492188 493.816406 C 521.058594 493.507813 521.679688 493.289063 522.367188 493.164063 C 523.054688 493.039063 523.710938 492.976563 524.332031 492.976563 C 525.046875 492.976563 525.730469 493.050781 526.378906 493.203125 C 527.03125 493.355469 527.617188 493.597656 528.144531 493.9375 C 528.671875 494.277344 529.109375 494.71875 529.457031 495.261719 C 529.804688 495.808594 530.023438 496.460938 530.109375 497.230469 L 526.929688 497.230469 C 526.785156 496.496094 526.449219 496.007813 525.925781 495.757813 C 525.398438 495.507813 524.796875 495.382813 524.117188 495.382813 C 523.902344 495.382813 523.648438 495.402344 523.355469 495.4375 C 523.0625 495.472656 522.785156 495.539063 522.527344 495.636719 C 522.269531 495.734375 522.050781 495.875 521.871094 496.066406 C 521.691406 496.25 521.605469 496.496094 521.605469 496.800781 C 521.605469 497.175781 521.734375 497.480469 521.992188 497.710938 C 522.253906 497.941406 522.59375 498.132813 523.015625 498.285156 C 523.433594 498.4375 523.910156 498.566406 524.449219 498.671875 C 524.984375 498.78125 525.539063 498.898438 526.109375 499.019531 C 526.664063 499.144531 527.214844 499.296875 527.746094 499.476563 C 528.285156 499.65625 528.765625 499.894531 529.183594 500.199219 C 529.605469 500.5 529.945313 500.886719 530.203125 501.347656 C 530.464844 501.8125 530.59375 502.382813 530.59375 503.0625 C 530.59375 503.882813 530.40625 504.578125 530.03125 505.148438 C 529.652344 505.71875 529.167969 506.183594 528.566406 506.539063 C 527.972656 506.894531 527.304688 507.15625 526.570313 507.316406 C 525.839844 507.476563 525.113281 507.554688 524.398438 507.554688 C 523.523438 507.554688 522.714844 507.457031 521.972656 507.261719 C 521.230469 507.066406 520.589844 506.765625 520.042969 506.363281 C 519.496094 505.964844 519.066406 505.464844 518.757813 504.867188 C 518.441406 504.269531 518.277344 503.5625 518.261719 502.738281 L 521.3125 502.738281 "/>
</g>
</svg>
