<svg id="Layer_1" data-name="Layer 1" xmlns="http://www.w3.org/2000/svg" viewBox="0 0 16 8.89"><defs><style>.cls-1{<fill: id="000000"></fill:>;}.cls-2{fill:#050505;}.cls-3{fill:#080808;}.cls-4{fill:#fcfcfc;}</style></defs><path class="cls-1" d="M10.49,11.41a.59.59,0,0,1-.59.45.44.44,0,0,1-.38-.49c0-.42.07-.84.12-1.27a1.17,1.17,0,0,1,0-.26l-.07,0c-.2.45-.39.9-.59,1.34,0,.11-.15.29-.22.29a.45.45,0,0,1-.33-.23,3.17,3.17,0,0,1-.12-.75c0-.14,0-.29,0-.45a6.68,6.68,0,0,1-.41.67,5.5,5.5,0,0,1-.68.76.52.52,0,0,1-.63.09A.54.54,0,0,1,6.4,11a4.94,4.94,0,0,0,0-.67l-.52.6a6.8,6.8,0,0,1-.5.57.44.44,0,0,1-.76-.29,1.74,1.74,0,0,1,.08-.64A5.59,5.59,0,0,1,5.85,8.61c.23-.28.38-.29.68-.09s.33.16.48,0,.31-.27.46-.13a.57.57,0,0,1,.11.48c-.09.37-.26.73-.38,1.1s-.19.76-.28,1.15l.09.06a1.39,1.39,0,0,0,.35-.28c.28-.38.51-.79.8-1.16a6.1,6.1,0,0,0,.76-2.06c.25-.71.52-1.42.82-2.11a2.44,2.44,0,0,1,.53-.72.55.55,0,0,1,.67-.13.56.56,0,0,1,.24.64,5.92,5.92,0,0,1-.85,2.1,10.88,10.88,0,0,1-.76,1.15,2.45,2.45,0,0,0-.45,1.55c.18-.31.35-.62.54-.92a2.53,2.53,0,0,1,.39-.52.36.36,0,0,1,.3-.1.33.33,0,0,1,.14.29c-.05.31-.13.61-.2.92s-.21.86-.27,1.3S10.06,11.6,10.49,11.41ZM9.4,8.06l.09,0h0a7,7,0,0,0,1.2-2.32,2.06,2.06,0,0,0,0-.43.78.78,0,0,0-.56.54C9.91,6.6,9.66,7.34,9.4,8.06ZM5.21,10.73l.11,0,1.3-1.59c.09-.12,0-.24-.12-.24A.5.5,0,0,0,6.17,9,6.15,6.15,0,0,0,5.21,10.73Z" transform="translate(0 -3.55)"/><path class="cls-2" d="M15.85,8.79a3,3,0,0,1-.17.41l-1.26,2.3a1,1,0,0,1-.14.2.93.93,0,0,1-.95.4.78.78,0,0,1-.57-.78c0-.44,0-.88,0-1.33,0,0,0-.09,0-.23-.3.45-.56.82-.82,1.19a4.47,4.47,0,0,1-.32.41.47.47,0,0,1-.5.2.44.44,0,0,1-.35-.43,3.09,3.09,0,0,1,0-.86c.12-.51.29-1,.46-1.5a.49.49,0,0,1,.65-.27c.16.06.12.16.08.28-.22.64-.43,1.29-.63,1.93a2,2,0,0,0,0,.49l.08,0c.1-.11.21-.2.3-.32.39-.58.77-1.16,1.15-1.75a1,1,0,0,0,.1-.36,14.92,14.92,0,0,1,1.51-4,8.2,8.2,0,0,1,.71-1,.72.72,0,0,1,.33-.21A.35.35,0,0,1,16,4a10.57,10.57,0,0,1-.31,1.1,27.27,27.27,0,0,1-2,4.73,3.42,3.42,0,0,0-.29,1.64c0,.26.12.32.33.15a2.44,2.44,0,0,0,.51-.55c.45-.65.88-1.32,1.32-2l.24-.31Zm-.59-4.12a15.28,15.28,0,0,0-1.42,4.08A19,19,0,0,0,15.26,4.67Zm-2.51,5.1h0Z" transform="translate(0 -3.55)"/><path class="cls-1" d="M1.51,10.74c-.23.29-.43.53-.6.78a1,1,0,0,0-.09.3c.11,0,.24,0,.33,0a5.37,5.37,0,0,0,2-1.27c.34-.35.29-.59-.15-.79s-.69-.27-1-.41C.84,8.9.57,8.3,1,7.12a4.24,4.24,0,0,1,1.64-2.2,1.16,1.16,0,0,1,1-.24.66.66,0,0,1,.52.73,1.23,1.23,0,0,1-.67.89,3.62,3.62,0,0,0,.15-.56,2.41,2.41,0,0,0,0-.53,1.71,1.71,0,0,0-.48.18A5.48,5.48,0,0,0,1.54,7.72a.8.8,0,0,0,.44,1,12,12,0,0,0,1.17.48,5.72,5.72,0,0,1,.68.28.82.82,0,0,1,.28,1.35,3.19,3.19,0,0,1-1.3,1,7.89,7.89,0,0,1-1.5.54,2.64,2.64,0,0,1-1-.07c-.31-.07-.35-.25-.15-.49A4.61,4.61,0,0,1,1.51,10.74Z" transform="translate(0 -3.55)"/><path class="cls-3" d="M11.77,8c-.07-.11-.22-.23-.21-.33a1.58,1.58,0,0,1,.23-.47,2.29,2.29,0,0,1,.43.45C12.28,7.75,12,8,11.77,8Z" transform="translate(0 -3.55)"/><polygon class="cls-4" points="12.75 6.22 12.75 6.23 12.74 6.23 12.75 6.22"/></svg>